HIERARCHY
ROOT ui
{
	 OFFSET 0 0 0
	 CHANNELS 3 XPosition YPosition Z Position
	 EndSite
	 {
	 OFFSET 0 -1 0
	 }
}
ROOT li
{
	 OFFSET 0 0 0
	 CHANNELS 3 XPosition YPosition Z Position
	 EndSite
	 {
	 OFFSET 0 -1 0
	 }
}
ROOT ul
{
	 OFFSET 0 0 0
	 CHANNELS 3 XPosition YPosition Z Position
	 EndSite
	 {
	 OFFSET 0 -1 0
	 }
}
ROOT ll
{
	 OFFSET 0 0 0
	 CHANNELS 3 XPosition YPosition Z Position
	 EndSite
	 {
	 OFFSET 0 -1 0
	 }
}
ROOT tt
{
	 OFFSET 0 0 0
	 CHANNELS 3 XPosition YPosition Z Position
	 EndSite
	 {
	 OFFSET 0 -1 0
	 }
}
ROOT tb
{
	 OFFSET 0 0 0
	 CHANNELS 3 XPosition YPosition Z Position
	 EndSite
	 {
	 OFFSET 0 -1 0
	 }
}
ROOT td
{
	 OFFSET 0 0 0
	 CHANNELS 3 XPosition YPosition Z Position
	 EndSite
	 {
	 OFFSET 0 -1 0
	 }
}
ROOT v
{
	 OFFSET 0 0 0
	 CHANNELS 3 XPosition YPosition Z Position
	 EndSite
	 {
	 OFFSET 0 -1 0
	 }
}
ROOT bn
{
	 OFFSET 0 0 0
	 CHANNELS 3 XPosition YPosition Z Position
	 EndSite
	 {
	 OFFSET 0 -1 0
	 }
}
MOTION
Frames: 32
Frame Time: 0.002
-0.0028576440811157225	-8.757619857788086E-4	0		0.4394669189453125	-2.372517822265625	0		-1.095640869140625	-0.0671082992553711	0		-0.9030061645507812	-2.334060302734375	0		1.22041650390625	-0.53175634765625	0		2.911134033203125	0.1420712127685547	0		4.41644970703125	0.13892961120605468	0		5.58439892578125	0.12343634796142579	0		-0.25360546875	5.92133447265625	0		
-6.665059924125671E-4	0.0016410520076751709	0		0.4385451965332031	-2.372940673828125	0		-1.096518310546875	-0.06750164031982422	0		-0.82124365234375	-2.349338134765625	0		1.2394569091796874	-0.5356473999023438	0		2.920917236328125	0.12635514068603515	0		4.4045791015625	0.13868016052246093	0		5.57770849609375	0.13104891967773438	0		-0.2543679809570312	5.92092529296875	0		
0.001538321018218994	0.005152797222137451	0		0.41684469604492186	-2.36289404296875	0		-1.1303056640625	-0.06314990997314453	0		-0.8879320678710938	-2.33824365234375	0		1.2268592529296876	-0.5228221435546875	0		2.907651123046875	0.15316558837890626	0		4.40783203125	0.14407989501953125	0		5.57682568359375	0.13051744079589844	0		-0.240910400390625	5.9301904296875	0		
0.02562999725341797	0.003165596961975098	0		0.4407960205078125	-2.368888916015625	0		-1.0232595825195312	-0.06800068664550782	0		-0.8189918823242187	-2.345234619140625	0		1.2318311767578125	-0.5294015502929688	0		2.9232705078125	0.13030511474609374	0		4.4069560546875	0.1435690155029297	0		5.57594921875	0.129982177734375	0		-0.24166590881347655	5.9297763671875	0		
-2.002730071544647E-4	0.004319100856781006	0		0.4280482177734375	-2.362041748046875	0		-1.0950794677734375	-0.06577771759033203	0		-0.8435767211914063	-2.33108935546875	0		1.2337318115234375	-0.5399083251953125	0		2.915870849609375	0.14998202514648437	0		4.40609912109375	0.14306004333496095	0		5.594064453125	0.12801600646972655	0		-0.25566845703125	5.917666015625	0		
0.017806276321411133	-0.0035193469524383543	0		0.4348922119140625	-2.374637451171875	0		-1.099977294921875	-0.06906935119628907	0		-0.8716546020507813	-2.33986083984375	0		1.221893798828125	-0.5400919189453125	0		2.91093212890625	0.14460360717773438	0		4.4052734375	0.14255677795410157	0		5.57426611328125	0.12891950988769532	0		-0.2573229675292969	5.91928662109375	0		
-0.004910189151763916	-4.1612699627876284E-4	0		0.40812460327148437	-2.3714521484375	0		-1.1336695556640626	-0.06469093322753906	0		-0.860659423828125	-2.3475107421875	0		1.23515625	-0.5378362426757812	0		2.910144775390625	0.1441422119140625	0		4.40448583984375	0.14206248474121094	0		5.573478515625	0.12839947509765626	0		-0.2579832153320312	5.91889501953125	0		
0.025472761154174805	0.0044901580810546874	0		0.43840948486328124	-2.3685546875	0		-1.12625927734375	-0.058234928131103515	0		-0.8912439575195312	-2.33819384765625	0		1.2402598876953126	-0.544383544921875	0		2.933121826171875	0.1311485595703125	0		4.4126953125	0.13937562561035155	0		5.5826640625	0.12466422271728515	0		-0.24244271850585938	5.92514892578125	0		
-1.9533799588680267E-4	0.00569118595123291	0		0.4376597595214844	-2.36893359375	0		-1.0981484375	-0.06724006652832032	0		-0.8231709594726563	-2.347118408203125	0		1.2278504638671874	-0.5315093994140625	0		2.91595703125	0.15409701538085938	0		4.42817919921875	0.14654136657714845	0		5.57619921875	0.13430638122558594	0		-0.24396385192871095	5.92680712890625	0		
0.021059391021728515	8.366730213165283E-4	0		0.4338463134765625	-2.3742255859375	0		-1.098798095703125	-0.06756848907470703	0		-0.9065741577148437	-2.3335576171875	0		1.229961181640625	-0.54195458984375	0		2.885045654296875	0.14237026977539063	0		4.397587890625	0.1487779541015625	0		5.57139501953125	0.12692560577392578	0		-0.2596845703125	5.9178056640625	0		
-0.007602294921875	-0.0018564410209655762	0		0.4311495666503906	-2.376523193359375	0		-1.103467529296875	-0.07078691864013673	0		-0.8404712524414063	-2.34540380859375	0		1.224190185546875	-0.5491992797851563	0		2.9164169921875	0.1402413787841797	0		4.4148486328125	0.14193829345703124	0		5.57079736328125	0.12647116851806642	0		-0.26015750122070314	5.9174765625	0		
-0.0050674819946289066	0.0017579530477523804	0		0.43054330444335936	-2.37684814453125	0		-1.1369246826171875	-0.06632445526123047	0		-0.8970392456054688	-2.343419189453125	0		1.2257137451171876	-0.5455879516601563	0		2.908820068359375	0.13802467346191405	0		4.40125341796875	0.13982740783691405	0		5.570244140625	0.12603743743896484	0		-0.26058843994140624	5.917166015625	0		
-0.0055827550888061525	0.0014609869718551637	0		0.4351383361816406	-2.370270751953125	0		-1.1004739990234376	-0.06844644927978516	0		-0.8256905517578125	-2.34834814453125	0		1.23718408203125	-0.5461854858398437	0		2.904698486328125	0.15475502014160156	0		4.41487451171875	0.1451171112060547	0		5.57389111328125	0.13253216552734376	0		-0.23250770568847656	5.9372265625	0		
0.021978191375732422	0.0025399179458618164	0		0.4346136474609375	-2.37055712890625	0		-1.1009530029296875	-0.06870252990722656	0		-0.9068720703125	-2.332754150390625	0		1.2308349609375	-0.540351806640625	0		2.89185986328125	0.1386990966796875	0		4.40440234375	0.14498109436035156	0		5.5834130859375	0.13191404724121095	0		-0.24711628723144533	5.92627783203125	0		
-0.006503559112548828	9.24347996711731E-4	0		0.43101126098632814	-2.375754150390625	0		-1.0363228759765626	-0.06643486785888672	0		-0.8406070556640625	-2.344532470703125	0		1.21252392578125	-0.5342222290039063	0		2.9127353515625	0.15189903259277343	0		4.3998251953125	0.13873187255859376	0		5.5787900390625	0.1236429443359375	0		-0.24744682312011718	5.9260234375	0		
-0.013076118469238281	-0.006176156997680664	0		0.42850949096679686	-2.377955810546875	0		-1.141847412109375	-0.07024078369140625	0		-0.8769843139648438	-2.3409306640625	0		1.21210107421875	-0.5344846801757812	0		2.880333251953125	0.1523415069580078	0		4.40459716796875	0.14629457092285156	0		5.57837890625	0.12330131530761719	0		-0.261978759765625	5.91611181640625	0		
-0.007304042816162109	4.618909955024719E-4	0		0.430126708984375	-2.376232177734375	0		-1.1022005615234376	-0.06936426544189453	0		-0.8317002563476562	-2.354193115234375	0		1.221333740234375	-0.5509536743164063	0		2.911940185546875	0.15133331298828126	0		4.40316650390625	0.1440199432373047	0		5.56801953125	0.12421276092529297	0		-0.26226412963867185	5.91589404296875	0		
-0.0045993938446044925	0.0031880650520324707	0		0.40691476440429686	-2.367915771484375	0		-1.1683636474609376	-0.06003289413452149	0		-0.89680859375	-2.34089013671875	0		1.235049560546875	-0.5475009765625	0		2.9001904296875	0.1343397216796875	0		4.40280517578125	0.1437443389892578	0		5.57181787109375	0.13082427978515626	0		-0.2321251678466797	5.9329990234375	0		
0.023121622085571288	0.005356420040130616	0		0.43246209716796874	-2.371705810546875	0		-1.027880859375	-0.06944804382324218	0		-0.8391771850585937	-2.34139892578125	0		1.22884033203125	-0.54156884765625	0		2.915354736328125	0.15575848388671876	0		4.4056044921875	0.14942103576660157	0		5.57147900390625	0.13055393981933594	0		-0.24757923889160155	5.92416455078125	0		
-0.008327155113220215	-9.561099857091904E-5	0		0.40514019775390625	-2.3702578125	0		-1.110086669921875	-0.06371217727661133	0		-0.8395288696289063	-2.34155517578125	0		1.2144486083984376	-0.5444306030273437	0		2.868773681640625	0.14461317443847657	0		4.41351611328125	0.15900396728515626	0		5.567001953125	0.12340164947509766	0		-0.24879133605957032	5.92502294921875	0		
-0.008626042366027832	-2.4686199426651E-4	0		0.4266201477050781	-2.378919677734375	0		-1.103526611328125	-0.07000899505615234	0		-0.8429496459960938	-2.345625244140625	0		1.2082825927734375	-0.5384608764648438	0		2.90458251953125	0.14859280395507812	0		4.40289892578125	0.1450296936035156	0		5.56670458984375	0.12317799377441406	0		-0.263240234375	5.9152001953125	0		
-0.011998510360717774	-0.004312660217285156	0		0.3765087890625	-2.3699091796875	0		-1.1407755126953125	-0.06827838134765625	0		-0.9012661743164062	-2.34541259765625	0		1.2196920166015626	-0.551885009765625	0		2.8890302734375	0.13677137756347657	0		4.39262255859375	0.14507182312011718	0		5.56642529296875	0.12297545623779296	0		-0.26345068359375	5.9150673828125	0		
-0.0061016597747802735	0.0024247179031372072	0		0.43118231201171875	-2.372305419921875	0		-1.1010037841796876	-0.06731253814697266	0		-0.8984630737304687	-2.341595458984375	0		1.2335115966796875	-0.5483448486328125	0		2.89339111328125	0.16351826477050782	0		4.3996591796875	0.1577369384765625	0		5.57032373046875	0.12969876098632813	0		-0.23517250061035155	5.9352958984375	0		
-0.0063447971343994145	0.002315232038497925	0		0.43091635131835937	-2.3724189453125	0		-1.104316162109375	-0.07034140014648438	0		-0.8299088745117188	-2.35028857421875	0		1.221266357421875	-0.5481890258789063	0		2.892641357421875	0.14138677978515626	0		4.42206494140625	0.1420578155517578	0		5.5758955078125	0.12139921569824219	0		-0.23535861206054687	5.9351884765625	0		
0.015337501525878906	-0.0022898919582366945	0		0.45350912475585936	-2.380050048828125	0		-1.033578125	-0.07307040405273438	0		-0.8758815307617187	-2.3383193359375	0		1.2151824951171875	-0.5421600952148438	0		2.91785546875	0.15968185424804687	0		4.39503857421875	0.1505446014404297	0		5.57567724609375	0.1212545394897461	0		-0.2640059814453125	5.9147451171875	0		
-0.009824250221252441	-7.998510003089904E-4	0		0.4273536376953125	-2.377540283203125	0		-1.039653076171875	-0.06801307678222657	0		-0.8463059692382813	-2.348091552734375	0		1.20705859375	-0.5390722045898437	0		2.881582275390625	0.1564066162109375	0		4.40789111328125	0.15212448120117186	0		5.56551220703125	0.12235784912109375	0		-0.265131591796875	5.9156826171875	0		
0.014985858917236328	-0.0024557590484619142	0		0.42717938232421876	-2.37762109375	0		-1.104888671875	-0.07058112335205079	0		-0.9024419555664063	-2.3458701171875	0		1.218591552734375	-0.5524315795898438	0		2.881423095703125	0.1563112030029297	0		4.40050244140625	0.14218447875976561	0		5.569513671875	0.12915205383300782	0		-0.25005226135253905	5.9242568359375	0		
-0.002973355054855347	0.004888730049133301	0		0.4062792663574219	-2.3672099609375	0		-1.0978548583984375	-0.06380956268310548	0		-0.8265759887695312	-2.346693603515625	0		1.2325517578125	-0.5488319702148438	0		2.905013916015625	0.14367613220214845	0		4.398724609375	0.15713638305664063	0		5.56938818359375	0.1290562744140625	0		-0.23396983337402344	5.93181591796875	0		
0.017838424682617187	3.4174901247024535E-4	0		0.4300593566894531	-2.372827392578125	0		-1.10203662109375	-0.06777474212646484	0		-0.9103737182617188	-2.332813720703125	0		1.226600341796875	-0.5427611694335938	0		2.8894375	0.16596847534179687	0		4.3938212890625	0.16517317199707032	0		5.569298828125	0.12897573852539063	0		-0.23597064208984375	5.9347998046875	0		
-0.007185963153839112	0.0018636330366134644	0		0.4289547119140625	-2.374860595703125	0		-1.1120189208984375	-0.06459825134277344	0		-0.8416358642578124	-2.3424619140625	0		1.2124793701171874	-0.5454949340820312	0		2.875808837890625	0.14121434020996093	0		4.41641455078125	0.149580810546875	0		5.565083984375	0.12200355529785156	0		-0.2512409820556641	5.92509375	0		
0.011627358436584473	-0.005625379085540771	0		0.42686474609375	-2.377865234375	0		-1.1051793212890626	-0.07080929565429687	0		-0.9135451049804687	-2.336848388671875	0		1.2182958984375	-0.5526839599609376	0		2.890086181640625	0.15383392333984375	0		4.4115810546875	0.15764031982421875	0		5.565064453125	0.12194886016845703	0		-0.26450811767578125	5.91434619140625	0		
-0.010261691093444825	-0.0011657040119171143	0		0.4268786926269531	-2.3779130859375	0		-1.105166748046875	-0.07085809326171875	0		-0.832876708984375	-2.35276708984375	0		1.2183087158203125	-0.5527313842773437	0		2.89179736328125	0.1407447052001953	0		4.38962255859375	0.15910340881347657	0		5.56507666015625	0.12190401458740234	0		-0.25027151489257815	5.92397119140625	0		
